<svg width="83" height="18" viewBox="0 0 83 18" fill="none" xmlns="http://www.w3.org/2000/svg">
<path d="M8.58594 0.5C6.9048 0.5 5.26141 0.998516 3.86359 1.93251C2.46578 2.8665 1.37631 4.19402 0.732965 5.74719C0.0896204 7.30036 -0.0787079 9.00943 0.249266 10.6583C0.577241 12.3071 1.38679 13.8217 2.57553 15.0104C3.76428 16.1992 5.27884 17.0087 6.92767 17.3367C8.57651 17.6646 10.2856 17.4963 11.8388 16.853C13.3919 16.2096 14.7194 15.1202 15.6534 13.7223C16.5874 12.3245 17.0859 10.6811 17.0859 9C17.0835 6.74641 16.1872 4.58582 14.5937 2.99228C13.0001 1.39875 10.8395 0.502437 8.58594 0.5V0.5ZM14.9191 8.29167H12.4556C12.2949 6.44638 11.7422 4.65667 10.8342 3.04221C11.9318 3.45729 12.8937 4.16684 13.6143 5.09291C14.335 6.01899 14.7864 7.12576 14.9191 8.29167ZM6.94615 10.4167H10.2257C9.94682 11.9005 9.3905 13.3183 8.58594 14.5958C7.78126 13.3184 7.22493 11.9005 6.94615 10.4167ZM6.85265 8.29167C7.05103 6.55184 7.64384 4.88024 8.58594 3.40417C9.52816 4.88018 10.121 6.55182 10.3192 8.29167H6.85265ZM6.33769 3.04221C5.42973 4.65667 4.87694 6.44638 4.71632 8.29167H2.25273C2.38544 7.12576 2.83691 6.01899 3.55755 5.09291C4.27819 4.16684 5.24013 3.45729 6.33769 3.04221ZM2.37527 10.4167H4.78998C5.02832 12.0112 5.55264 13.5496 6.33769 14.9578C5.35462 14.5852 4.47866 13.9759 3.78747 13.1837C3.09628 12.3916 2.61121 11.4411 2.37527 10.4167ZM10.8342 14.9578C11.6196 13.5497 12.1439 12.0113 12.3819 10.4167H14.7966C14.5607 11.4411 14.0756 12.3916 13.3844 13.1837C12.6932 13.9759 11.8173 14.5852 10.8342 14.9578Z" fill="white"/>
<path d="M26.2045 14.5V4.31818H27.7408V13.1776H32.3544V14.5H26.2045ZM37.2042 14.6541C36.4883 14.6541 35.8635 14.4901 35.3299 14.1619C34.7963 13.8338 34.382 13.3748 34.087 12.7848C33.792 12.1948 33.6445 11.5054 33.6445 10.7166C33.6445 9.92448 33.792 9.23177 34.087 8.63849C34.382 8.04522 34.7963 7.58452 35.3299 7.25639C35.8635 6.92827 36.4883 6.7642 37.2042 6.7642C37.9201 6.7642 38.5449 6.92827 39.0785 7.25639C39.6121 7.58452 40.0264 8.04522 40.3214 8.63849C40.6164 9.23177 40.7638 9.92448 40.7638 10.7166C40.7638 11.5054 40.6164 12.1948 40.3214 12.7848C40.0264 13.3748 39.6121 13.8338 39.0785 14.1619C38.5449 14.4901 37.9201 14.6541 37.2042 14.6541ZM37.2092 13.4062C37.6732 13.4062 38.0576 13.2836 38.3626 13.0384C38.6675 12.7931 38.8929 12.4666 39.0387 12.0589C39.1879 11.6513 39.2624 11.2022 39.2624 10.7116C39.2624 10.2244 39.1879 9.77699 39.0387 9.36932C38.8929 8.95833 38.6675 8.62855 38.3626 8.37997C38.0576 8.13139 37.6732 8.0071 37.2092 8.0071C36.7418 8.0071 36.354 8.13139 36.0458 8.37997C35.7409 8.62855 35.5138 8.95833 35.3647 9.36932C35.2189 9.77699 35.146 10.2244 35.146 10.7116C35.146 11.2022 35.2189 11.6513 35.3647 12.0589C35.5138 12.4666 35.7409 12.7931 36.0458 13.0384C36.354 13.2836 36.7418 13.4062 37.2092 13.4062ZM45.6397 14.6541C44.9006 14.6541 44.2643 14.4867 43.7306 14.152C43.2003 13.8139 42.7927 13.3482 42.5076 12.755C42.2226 12.1617 42.0801 11.4822 42.0801 10.7166C42.0801 9.94105 42.2259 9.25663 42.5176 8.66335C42.8092 8.06676 43.2202 7.60109 43.7505 7.26633C44.2808 6.93158 44.9056 6.7642 45.6248 6.7642C46.2048 6.7642 46.7219 6.87192 47.176 7.08736C47.63 7.29948 47.9963 7.59777 48.2747 7.98224C48.5564 8.36671 48.7238 8.81581 48.7768 9.32955H47.3301C47.2505 8.97159 47.0682 8.66335 46.7832 8.40483C46.5015 8.14631 46.1236 8.01705 45.6497 8.01705C45.2354 8.01705 44.8725 8.12642 44.5609 8.34517C44.2527 8.56061 44.0124 8.86884 43.84 9.26989C43.6677 9.66761 43.5815 10.1383 43.5815 10.6818C43.5815 11.2386 43.666 11.7192 43.835 12.1236C44.0041 12.5279 44.2427 12.8411 44.551 13.0632C44.8625 13.2853 45.2288 13.3963 45.6497 13.3963C45.9314 13.3963 46.1866 13.3449 46.4153 13.2422C46.6473 13.1361 46.8412 12.9853 46.997 12.7898C47.1561 12.5942 47.2671 12.3589 47.3301 12.0838H48.7768C48.7238 12.5777 48.563 13.0185 48.2946 13.4062C48.0261 13.794 47.6665 14.099 47.2157 14.321C46.7683 14.5431 46.243 14.6541 45.6397 14.6541ZM52.5888 14.669C52.1049 14.669 51.6674 14.5795 51.2763 14.4006C50.8852 14.2183 50.5753 13.9548 50.3466 13.6101C50.1212 13.2654 50.0085 12.8428 50.0085 12.3423C50.0085 11.9115 50.0914 11.5568 50.2571 11.2784C50.4228 11 50.6465 10.7796 50.9283 10.6172C51.21 10.4548 51.5249 10.3321 51.8729 10.2493C52.2209 10.1664 52.5755 10.1035 52.9368 10.0604C53.3942 10.0073 53.7654 9.96425 54.0504 9.93111C54.3355 9.89465 54.5426 9.83665 54.6719 9.7571C54.8011 9.67756 54.8658 9.5483 54.8658 9.36932V9.33452C54.8658 8.90033 54.7431 8.56392 54.4979 8.32528C54.2559 8.08665 53.8946 7.96733 53.4141 7.96733C52.9136 7.96733 52.5192 8.07836 52.2308 8.30043C51.9458 8.51918 51.7486 8.76278 51.6392 9.03125L50.2422 8.71307C50.4079 8.24905 50.6499 7.87453 50.968 7.58949C51.2895 7.30114 51.6591 7.09233 52.0767 6.96307C52.4943 6.83049 52.9335 6.7642 53.3942 6.7642C53.6991 6.7642 54.0223 6.80066 54.3636 6.87358C54.7083 6.94318 55.0298 7.07244 55.3281 7.26136C55.6297 7.45028 55.8767 7.72041 56.0689 8.07173C56.2611 8.41974 56.3572 8.87216 56.3572 9.42898V14.5H54.9055V13.456H54.8459C54.7498 13.6482 54.6056 13.8371 54.4134 14.0227C54.2211 14.2083 53.9742 14.3625 53.6726 14.4851C53.371 14.6077 53.0097 14.669 52.5888 14.669ZM52.9119 13.4759C53.3229 13.4759 53.6742 13.3946 53.9659 13.2322C54.2609 13.0698 54.4846 12.8577 54.6371 12.5959C54.7929 12.3307 54.8707 12.0473 54.8707 11.7457V10.7614C54.8177 10.8144 54.715 10.8641 54.5625 10.9105C54.4134 10.9536 54.2427 10.9917 54.0504 11.0249C53.8582 11.0547 53.6709 11.0829 53.4886 11.1094C53.3063 11.1326 53.1539 11.1525 53.0312 11.169C52.7429 11.2055 52.4794 11.2668 52.2408 11.353C52.0054 11.4392 51.8165 11.5634 51.674 11.7259C51.5348 11.8849 51.4652 12.0971 51.4652 12.3622C51.4652 12.7301 51.6011 13.0085 51.8729 13.1974C52.1446 13.383 52.491 13.4759 52.9119 13.4759ZM61.9018 6.86364V8.05682H57.7306V6.86364H61.9018ZM58.8493 5.03409H60.3358V12.2578C60.3358 12.5462 60.3788 12.7633 60.465 12.9091C60.5512 13.0516 60.6622 13.1494 60.7981 13.2024C60.9373 13.2521 61.0881 13.277 61.2505 13.277C61.3699 13.277 61.4743 13.2687 61.5637 13.2521C61.6532 13.2356 61.7228 13.2223 61.7725 13.2124L62.041 14.4403C61.9548 14.4735 61.8322 14.5066 61.6731 14.5398C61.514 14.5762 61.3152 14.5961 61.0765 14.5994C60.6854 14.6061 60.3208 14.5365 59.9828 14.3906C59.6447 14.2448 59.3713 14.0194 59.1625 13.7145C58.9537 13.4096 58.8493 13.0268 58.8493 12.5661V5.03409ZM63.5462 14.5V6.86364H65.0327V14.5H63.5462ZM64.2969 5.68537C64.0384 5.68537 63.8163 5.59919 63.6307 5.42685C63.4484 5.25118 63.3572 5.04238 63.3572 4.80043C63.3572 4.55516 63.4484 4.34635 63.6307 4.17401C63.8163 3.99834 64.0384 3.91051 64.2969 3.91051C64.5554 3.91051 64.7758 3.99834 64.9581 4.17401C65.1437 4.34635 65.2365 4.55516 65.2365 4.80043C65.2365 5.04238 65.1437 5.25118 64.9581 5.42685C64.7758 5.59919 64.5554 5.68537 64.2969 5.68537ZM70.2491 14.6541C69.5332 14.6541 68.9084 14.4901 68.3748 14.1619C67.8412 13.8338 67.4269 13.3748 67.1319 12.7848C66.8369 12.1948 66.6895 11.5054 66.6895 10.7166C66.6895 9.92448 66.8369 9.23177 67.1319 8.63849C67.4269 8.04522 67.8412 7.58452 68.3748 7.25639C68.9084 6.92827 69.5332 6.7642 70.2491 6.7642C70.965 6.7642 71.5898 6.92827 72.1234 7.25639C72.657 7.58452 73.0713 8.04522 73.3663 8.63849C73.6613 9.23177 73.8088 9.92448 73.8088 10.7166C73.8088 11.5054 73.6613 12.1948 73.3663 12.7848C73.0713 13.3748 72.657 13.8338 72.1234 14.1619C71.5898 14.4901 70.965 14.6541 70.2491 14.6541ZM70.2541 13.4062C70.7181 13.4062 71.1026 13.2836 71.4075 13.0384C71.7124 12.7931 71.9378 12.4666 72.0836 12.0589C72.2328 11.6513 72.3074 11.2022 72.3074 10.7116C72.3074 10.2244 72.2328 9.77699 72.0836 9.36932C71.9378 8.95833 71.7124 8.62855 71.4075 8.37997C71.1026 8.13139 70.7181 8.0071 70.2541 8.0071C69.7868 8.0071 69.399 8.13139 69.0907 8.37997C68.7858 8.62855 68.5588 8.95833 68.4096 9.36932C68.2638 9.77699 68.1909 10.2244 68.1909 10.7116C68.1909 11.2022 68.2638 11.6513 68.4096 12.0589C68.5588 12.4666 68.7858 12.7931 69.0907 13.0384C69.399 13.2836 69.7868 13.4062 70.2541 13.4062ZM76.9545 9.96591V14.5H75.468V6.86364H76.8949V8.10653H76.9893C77.165 7.70218 77.4401 7.37737 77.8146 7.1321C78.1925 6.88684 78.6681 6.7642 79.2415 6.7642C79.7618 6.7642 80.2176 6.87358 80.6087 7.09233C80.9998 7.30777 81.303 7.62926 81.5185 8.05682C81.7339 8.48437 81.8416 9.01302 81.8416 9.64276V14.5H80.3551V9.82173C80.3551 9.26823 80.2109 8.8357 79.9226 8.52415C79.6342 8.20928 79.2382 8.05185 78.7344 8.05185C78.3897 8.05185 78.0831 8.12642 77.8146 8.27557C77.5495 8.42472 77.339 8.64347 77.1832 8.93182C77.0308 9.21686 76.9545 9.56155 76.9545 9.96591Z" fill="white"/>
</svg>
