<svg width="159" height="20" viewBox="0 0 159 20" fill="none" xmlns="http://www.w3.org/2000/svg">
<g clip-path="url(#clip0_517_1600)">
<path d="M16.2262 19.4299L10.0037 14.8566L3.78117 19.4299L6.17034 12.0441L-0.0488281 7.4999H7.6295L10.0037 0.101562L12.3778 7.4999H20.0553L13.837 12.0441L16.2262 19.4299ZM10.0037 12.7882L13.052 15.0291L11.8853 11.4091L14.9512 9.16656H11.162L10.0037 5.5574L8.84534 9.16656H5.05534L8.12451 11.4091L6.95784 15.0291L10.0037 12.7882Z" fill="#FFC700"/>
</g>
<g clip-path="url(#clip1_517_1600)">
<path d="M41.2262 19.4299L35.0037 14.8566L28.7812 19.4299L31.1703 12.0441L24.9512 7.4999H32.6295L35.0037 0.101562L37.3778 7.4999H45.0553L38.837 12.0441L41.2262 19.4299ZM35.0037 12.7882L38.052 15.0291L36.8853 11.4091L39.9512 9.16656H36.162L35.0037 5.5574L33.8453 9.16656H30.0553L33.1245 11.4091L31.9578 15.0291L35.0037 12.7882Z" fill="#FFC700"/>
</g>
<g clip-path="url(#clip2_517_1600)">
<path d="M66.2262 19.4299L60.0037 14.8566L53.7812 19.4299L56.1703 12.0441L49.9512 7.4999H57.6295L60.0037 0.101562L62.3778 7.4999H70.0553L63.837 12.0441L66.2262 19.4299ZM60.0037 12.7882L63.052 15.0291L61.8853 11.4091L64.9512 9.16656H61.162L60.0037 5.5574L58.8453 9.16656H55.0553L58.1245 11.4091L56.9578 15.0291L60.0037 12.7882Z" fill="#FFC700"/>
</g>
<g clip-path="url(#clip3_517_1600)">
<path d="M91.2262 19.4299L85.0037 14.8566L78.7812 19.4299L81.1703 12.0441L74.9512 7.4999H82.6295L85.0037 0.101562L87.3778 7.4999H95.0553L88.837 12.0441L91.2262 19.4299ZM85.0037 12.7882L88.052 15.0291L86.8853 11.4091L89.9512 9.16656H86.162L85.0037 5.5574L83.8453 9.16656H80.0553L83.1245 11.4091L81.9578 15.0291L85.0037 12.7882Z" fill="#FFC700"/>
</g>
<g clip-path="url(#clip4_517_1600)">
<path d="M116.226 19.4299L110.004 14.8566L103.781 19.4299L106.17 12.0441L99.9512 7.4999H107.63L110.004 0.101562L112.378 7.4999H120.055L113.837 12.0441L116.226 19.4299ZM110.004 12.7882L113.052 15.0291L111.885 11.4091L114.951 9.16656H111.162L110.004 5.5574L108.845 9.16656H105.055L108.125 11.4091L106.958 15.0291L110.004 12.7882Z" fill="#FFC700"/>
</g>
<path d="M123.705 10.1818C123.705 8.75 123.89 7.43371 124.261 6.23295C124.636 5.02841 125.17 3.92045 125.864 2.90909H127.045C126.773 3.28409 126.517 3.74621 126.278 4.29545C126.044 4.84091 125.837 5.44129 125.659 6.09659C125.481 6.74811 125.341 7.42235 125.239 8.11932C125.14 8.81629 125.091 9.50379 125.091 10.1818C125.091 11.0833 125.178 11.9981 125.352 12.9261C125.527 13.8542 125.761 14.7159 126.057 15.5114C126.352 16.3068 126.682 16.9545 127.045 17.4545H125.864C125.17 16.4432 124.636 15.3371 124.261 14.1364C123.89 12.9318 123.705 11.6136 123.705 10.1818ZM133.092 4.36364V16H131.683V5.84091H131.615L128.774 7.72727V6.29545L131.683 4.36364H133.092ZM136.439 16V14.9773L140.28 10.7727C140.731 10.2803 141.102 9.85227 141.393 9.48864C141.685 9.12121 141.901 8.77652 142.041 8.45455C142.185 8.12879 142.257 7.78788 142.257 7.43182C142.257 7.02273 142.159 6.66856 141.962 6.36932C141.768 6.07008 141.503 5.83901 141.166 5.67614C140.829 5.51326 140.45 5.43182 140.03 5.43182C139.583 5.43182 139.193 5.52462 138.859 5.71023C138.53 5.89205 138.274 6.14773 138.092 6.47727C137.914 6.80682 137.825 7.19318 137.825 7.63636H136.484C136.484 6.95455 136.642 6.35606 136.956 5.84091C137.27 5.32576 137.698 4.92424 138.24 4.63636C138.786 4.34848 139.397 4.20455 140.075 4.20455C140.757 4.20455 141.361 4.34848 141.888 4.63636C142.414 4.92424 142.827 5.3125 143.126 5.80114C143.426 6.28977 143.575 6.83333 143.575 7.43182C143.575 7.85985 143.498 8.27841 143.342 8.6875C143.191 9.0928 142.926 9.54545 142.547 10.0455C142.172 10.5417 141.651 11.1477 140.984 11.8636L138.371 14.6591V14.75H143.78V16H136.439ZM150.217 4.36364V16H148.808V5.84091H148.74L145.899 7.72727V6.29545L148.808 4.36364H150.217ZM156.45 10.1818C156.45 11.6136 156.263 12.9318 155.888 14.1364C155.517 15.3371 154.984 16.4432 154.291 17.4545H153.109C153.382 17.0795 153.636 16.6174 153.871 16.0682C154.109 15.5227 154.318 14.9242 154.496 14.2727C154.674 13.6174 154.812 12.9413 154.911 12.2443C155.013 11.5436 155.064 10.8561 155.064 10.1818C155.064 9.2803 154.977 8.36553 154.803 7.4375C154.628 6.50947 154.393 5.64773 154.098 4.85227C153.803 4.05682 153.473 3.40909 153.109 2.90909H154.291C154.984 3.92045 155.517 5.02841 155.888 6.23295C156.263 7.43371 156.45 8.75 156.45 10.1818Z" fill="#454444"/>
<defs>
<clipPath id="clip0_517_1600">
<rect width="20" height="20" fill="white" transform="translate(0.00390625)"/>
</clipPath>
<clipPath id="clip1_517_1600">
<rect width="20" height="20" fill="white" transform="translate(25.0039)"/>
</clipPath>
<clipPath id="clip2_517_1600">
<rect width="20" height="20" fill="white" transform="translate(50.0039)"/>
</clipPath>
<clipPath id="clip3_517_1600">
<rect width="20" height="20" fill="white" transform="translate(75.0039)"/>
</clipPath>
<clipPath id="clip4_517_1600">
<rect width="20" height="20" fill="white" transform="translate(100.004)"/>
</clipPath>
</defs>
</svg>
