<svg width="19" height="18" viewBox="0 0 19 18" fill="none" xmlns="http://www.w3.org/2000/svg">
<g clip-path="url(#clip0_642_929)">
<path d="M14.6743 12.5832C15.8717 10.983 16.4184 8.98865 16.2045 7.00154C15.9906 5.01443 15.0318 3.18213 13.5213 1.87347C12.0107 0.564822 10.0605 -0.123018 8.06315 -0.0515859C6.06584 0.0198461 4.16973 0.845247 2.75651 2.25847C1.34329 3.67168 0.517893 5.56779 0.446461 7.56511C0.375029 9.56242 1.06287 11.5126 2.37152 13.0232C3.68017 14.5338 5.51247 15.4925 7.49958 15.7065C9.48669 15.9204 11.4811 15.3736 13.0813 14.1762L16.9063 18.0012L18.4993 16.4112L14.6743 12.5832ZM8.37426 13.5012C7.26174 13.5012 6.17421 13.1713 5.24918 12.5532C4.32416 11.9352 3.60318 11.0566 3.17744 10.0288C2.7517 9.00098 2.64031 7.86998 2.85735 6.77883C3.07439 5.68769 3.61012 4.68541 4.39679 3.89874C5.18346 3.11207 6.18574 2.57634 7.27688 2.3593C8.36802 2.14226 9.49902 2.25365 10.5269 2.6794C11.5547 3.10514 12.4332 3.82611 13.0513 4.75113C13.6694 5.67616 13.9993 6.7637 13.9993 7.87622C13.9979 9.36763 13.4048 10.7976 12.3502 11.8522C11.2956 12.9067 9.86568 13.4998 8.37426 13.5012Z" fill="white"/>
</g>
<defs>
<clipPath id="clip0_642_929">
<rect width="18" height="18" fill="white" transform="translate(0.5)"/>
</clipPath>
</defs>
</svg>
